# xmcd
#
# Track frame offsets: 
#        151
#        11452
#        25050
#        36897
#        48067
#        61275
#        72863
#        88456
#        99963
#        113221
#        127065
#        138754
#        150312
#        161729
#        174667
#        185628
#        198510
#        212668
#        227853
#        241383
#        252076
#        263334
#        276811
#        291344
#        306697
#        318322
#        329957
#        341502
#
# Disc length: 4785 seconds
#
# Revision: 0
# Processed by: cddbd v1.5.2PL0 Copyright (c) Steve Scherf et al.
# Submitted via: ExactAudioCopy v0.95b4
#
DISCID=9c12af1c
DTITLE=Hank Williams - Songwriter to Legend
DYEAR=1998
DGENRE=Country
TTITLE0=1. Peace Will Come, (I'm Praying For The Day When) - Roscoe Ha
TTITLE0=nkins
TTITLE1=2. Rockin' Chair Daddy - Braxton Shooford
TTITLE2=3. If I Didn't Love You - Rome Johnson
TTITLE3=4. You're Barking Up the Wrong Tree Now - Red Sovine
TTITLE4=5. Forever Is a Long, Long Time - Jimmie Davis
TTITLE5=6. Honey, Do You Love Me, Huh - Curley Williams, Curley Willia
TTITLE5=ms
TTITLE6=7. Stranger in the Night - George Morgan
TTITLE7=8. I Wish You Didn't Love Me So Much - Little Jimmy Dickens
TTITLE8=9. Me and My Broken Heart - Carl Smith
TTITLE9=10. Little House We Built (Just O'Er the Hill) - Big Bill List
TTITLE9=er
TTITLE10=11. Bayou Pon Pon - Jimmie Davis
TTITLE11=12. I Lost the Only Love I Knew - Ray Price
TTITLE12=13. Countrifled - Big Bill Lister
TTITLE13=14. On the Evening Train - Molly O'Day
TTITLE14=15. Never Been So Lonesome - Red Kirk
TTITLE15=16. My Cold, Cold Heart Is Melted Now - Kitty Wells
TTITLE16=17. Last Letter - Jimmy Swan
TTITLE17=18. Heart's Hall of Fame - Marvin Rainwater
TTITLE18=19. In Memory of Hank Williams - Arthur Smith
TTITLE19=20. Hank Williams Will Live Forever - Johnnie and Jack
TTITLE20=21. Hank Williams Sings the Blues No More - Jimmie Logsdon
TTITLE21=22. Singing Teacher in Heaven - Jimmie Skinner  
TTITLE22=23. Hank, It Will Never Be the Same Without You - Ernest Tubb
TTITLE22=,
TTITLE23=24. When Hank Williams Met Jimmie Rodgers - Riley Crabtree
TTITLE24=25. Hank Williams, That Alabama Boy - Denver Duke, Jeffrey Nu
TTITLE24=ll
TTITLE25=26. Two Blue Singing Stars - Cochran Brothers
TTITLE26=27. Lovesick Blues - Rex Griffin
TTITLE27=28. Battle Of New Orleans - Terry Gordon/Johnny Cash
EXTD=
EXTT0=
EXTT1=
EXTT2=
EXTT3=
EXTT4=
EXTT5=
EXTT6=
EXTT7=
EXTT8=
EXTT9=
EXTT10=
EXTT11=
EXTT12=
EXTT13=
EXTT14=
EXTT15=
EXTT16=
EXTT17=
EXTT18=
EXTT19=
EXTT20=
EXTT21=
EXTT22=
EXTT23=
EXTT24=
EXTT25=
EXTT26=
EXTT27=
PLAYORDER=
